<svg width="2500" height="1413" viewBox="0 0 2500 1413" fill="none" xmlns="http://www.w3.org/2000/svg">
<path d="M866.808 770.54C1091.43 770.54 1247.36 567.03 1247.36 400.545C1247.36 276.342 1133.72 223.479 1022.73 223.479C776.892 223.479 642.181 442.951 642.181 593.474C642.181 717.677 758.466 770.54 866.808 770.54ZM1469.4 770.54C1694.02 770.54 1849.95 567.03 1849.95 400.545C1849.95 276.342 1733.67 223.479 1622.66 223.479C1376.89 223.479 1242.13 442.826 1242.13 593.474C1242.13 717.677 1361.06 770.54 1469.4 770.54ZM1572.41 1153.73C1424.72 1276.1 1235.03 1335.85 1043.87 1320.22C792.804 1304.36 613.098 1111.43 581.399 907.941H591.957C650.1 1034.93 790.164 1153.73 961.952 1172.21C1136.26 1193.35 1345.14 1114.09 1458.77 1005.72L1331.92 907.941H1715.11L1630.45 1314.94L1574.95 1156.37L1572.41 1153.73Z" fill="#EA1D2C"/>
</svg>
